<?xml version="1.0" standalone="no"?><!DOCTYPE svg PUBLIC "-//W3C//DTD SVG 1.1//EN" "http://www.w3.org/Graphics/SVG/1.1/DTD/svg11.dtd"><svg t="1611649175772" class="icon" viewBox="0 0 1024 1024" version="1.1" xmlns="http://www.w3.org/2000/svg" p-id="2525" width="20" height="20" xmlns:xlink="http://www.w3.org/1999/xlink"><defs><style type="text/css">@font-face { font-family: element-icons; src: url("chrome-extension://moombeodfomdpjnpocobemoiaemednkg/fonts/element-icons.woff") format("woff"), url("chrome-extension://moombeodfomdpjnpocobemoiaemednkg/fonts/element-icons.ttf ") format("truetype"); }
</style></defs><path d="M512 32c265.12 0 480 214.88 480 480s-214.976 480-480 480S32 777.024 32 512 246.88 32 512 32z m-158.4 276.352a32 32 0 1 0-45.248 45.248l158.4 158.4-158.4 158.4a32 32 0 1 0 45.248 45.248l158.4-158.4 158.4 158.4a32 32 0 1 0 45.248-45.248L557.248 512l158.4-158.4a32 32 0 1 0-45.248-45.248L512 466.752z" p-id="2526" fill="#8a8a8a"></path></svg>